<svg width="152" height="28" viewBox="0 0 152 28" fill="none" xmlns="http://www.w3.org/2000/svg">
<path opacity="0.56" d="M40.9522 14.0051L35.6877 8.67102L38.3186 3.33881L46.8723 12.0056C47.9621 13.1099 47.9621 14.9003 46.8723 16.0046L36.3443 26.6718C35.2544 27.7761 33.4874 27.7761 32.3975 26.6718C31.3077 25.5675 31.3077 23.7771 32.3975 22.6728L40.9522 14.0051Z" fill="white"/>
<path d="M32.3996 1.32797C33.4894 0.2237 35.2569 0.224163 36.3467 1.32844L38.3206 3.32837L15.2921 26.6613C14.2023 27.7656 12.4348 27.7652 11.3449 26.6609L9.37111 24.6609L32.3996 1.32797ZM22.53 8.66151L18.5823 12.6614L13.3178 7.3273L6.73751 13.9947L12.002 19.3287L9.37111 24.6609L0.817397 15.9941C-0.272466 14.8898 -0.272466 13.0995 0.817397 11.9952L11.3449 1.32844C12.4348 0.224163 14.2023 0.2237 15.2921 1.32797L22.53 8.66151Z" fill="white"/>
<path fill-rule="evenodd" clip-rule="evenodd" d="M59.4095 9.65571V18.7158H64.3315L65.3747 21.7358H59.4095C57.7656 21.7358 56.4329 20.3837 56.4329 18.7158V9.65571C56.4329 7.9878 57.7656 6.63569 59.4095 6.63569H64.3315V9.65571H65.3747V3.61566C65.3747 2.78171 66.0419 2.10565 66.865 2.10565H68.3553V20.2258C68.3553 21.0597 67.6881 21.7358 66.865 21.7358H65.3747V9.65571H59.4095ZM74.3126 21.7358C72.6686 21.7358 71.3359 20.3837 71.3359 18.7158V15.6958C71.3359 14.0278 72.6686 12.6757 74.3126 12.6757H79.2345V15.6958H80.2777V9.65571H72.0801V8.1457C72.0801 7.31174 72.7464 6.63569 73.5684 6.63569H80.2777C81.9239 6.63569 83.2583 7.9878 83.2583 9.65571V20.2258C83.2583 21.0598 82.5911 21.7358 81.768 21.7358H80.2777V15.6958H74.3126V18.7158H79.2345L80.2777 21.7358C76.6032 21.7358 74.6149 21.7358 74.3126 21.7358ZM86.2389 21.7358V8.1457C86.2389 7.31174 86.9053 6.63569 87.7273 6.63569H89.2156V20.2258C89.2156 21.0597 88.5493 21.7358 87.7273 21.7358H86.2389ZM89.2156 3.62553C89.2156 4.04663 89.0729 4.40192 88.7876 4.69142C88.5022 4.98093 88.1521 5.12567 87.737 5.12567C87.322 5.12567 86.9685 4.98093 86.6767 4.69142C86.3849 4.40192 86.2389 4.04663 86.2389 3.62553C86.2389 3.19128 86.3849 2.82941 86.6767 2.5399C86.9685 2.2504 87.322 2.10565 87.737 2.10565C88.1521 2.10565 88.5022 2.2504 88.7876 2.5399C89.0729 2.82941 89.2156 3.19128 89.2156 3.62553ZM92.2001 21.7358V3.61566C92.2001 2.78171 92.8665 2.10565 93.6885 2.10565H95.1768V20.2258C95.1768 21.0597 94.5105 21.7358 93.6885 21.7358H92.2001ZM102.245 21.7419L98.2259 8.96269C97.9856 8.16517 98.4383 7.321 99.2244 7.07717L100.64 6.63569L103.919 17.4888L106.87 7.70461C107.11 6.9071 107.932 6.45824 108.718 6.70207L110.084 7.14355L105.022 24.1282C104.639 25.3979 103.484 26.2651 102.175 26.2653L99.7144 26.2658C98.8924 26.2658 98.226 25.59 98.2259 24.756L98.2261 23.2458H100.7C101.519 23.2458 102.241 22.5734 102.245 21.7419Z" fill="white"/>
<path opacity="0.56" d="M114.94 21.9324V19.7986H112.775V21.9324H114.94ZM121.415 22.072C122.465 22.072 123.354 21.8061 124.082 21.2743C124.81 20.7425 125.319 20.0313 125.607 19.1405V21.9324H127.398V7.17548H125.607V13.7762C125.319 12.8855 124.81 12.1742 124.082 11.6424C123.354 11.1106 122.465 10.8448 121.415 10.8448C120.457 10.8448 119.604 11.0708 118.856 11.5228C118.109 11.9748 117.521 12.6262 117.095 13.4771C116.669 14.3279 116.455 15.325 116.455 16.4683C116.455 17.6117 116.669 18.6054 117.095 19.4496C117.521 20.2938 118.109 20.9419 118.856 21.3939C119.604 21.846 120.457 22.072 121.415 22.072ZM121.927 20.4766C120.825 20.4766 119.942 20.121 119.28 19.4097C118.617 18.6985 118.286 17.718 118.286 16.4683C118.286 15.2186 118.617 14.2382 119.28 13.5269C119.942 12.8157 120.825 12.46 121.927 12.46C122.635 12.46 123.268 12.6229 123.826 12.9486C124.384 13.2743 124.82 13.743 125.135 14.3545C125.45 14.966 125.607 15.6707 125.607 16.4683C125.607 17.266 125.45 17.9673 125.135 18.5722C124.82 19.1771 124.384 19.6457 123.826 19.9781C123.268 20.3104 122.635 20.4766 121.927 20.4766ZM135.035 22.072C135.94 22.072 136.753 21.9058 137.475 21.5734C138.197 21.2411 138.784 20.7757 139.237 20.1775C139.689 19.5792 139.981 18.9012 140.112 18.1434H138.203C138.072 18.8879 137.715 19.4829 137.131 19.9282C136.547 20.3736 135.822 20.5963 134.956 20.5963C133.998 20.5963 133.188 20.2838 132.525 19.659C131.863 19.0342 131.512 18.0969 131.472 16.8472H140.112C140.165 16.568 140.191 16.2357 140.191 15.8501C140.191 14.9328 139.985 14.0953 139.571 13.3375C139.158 12.5797 138.561 11.9748 137.78 11.5228C137 11.0708 136.084 10.8448 135.035 10.8448C133.998 10.8448 133.08 11.0708 132.279 11.5228C131.479 11.9748 130.852 12.6262 130.4 13.4771C129.947 14.3279 129.721 15.325 129.721 16.4683C129.721 17.6117 129.947 18.6054 130.4 19.4496C130.852 20.2938 131.479 20.9419 132.279 21.3939C133.08 21.846 133.998 22.072 135.035 22.072ZM138.38 15.9698H131.472C131.525 14.7733 131.886 13.8659 132.555 13.2477C133.224 12.6295 134.051 12.3204 135.035 12.3204C135.651 12.3204 136.222 12.4534 136.747 12.7193C137.272 12.9852 137.685 13.3907 137.987 13.9357C138.289 14.4808 138.42 15.1588 138.38 15.9698ZM147.769 21.9324L152 10.9843H150.071L146.725 19.998L143.34 10.9843H141.411L145.643 21.9324H147.769Z" fill="white"/>
</svg>
