<?xml version="1.0" standalone="no"?>
<!DOCTYPE svg PUBLIC "-//W3C//DTD SVG 20010904//EN"
 "http://www.w3.org/TR/2001/REC-SVG-20010904/DTD/svg10.dtd">
<svg version="1.0" xmlns="http://www.w3.org/2000/svg"
 width="423.000000pt" height="383.000000pt" viewBox="0 0 423.000000 383.000000"
 preserveAspectRatio="xMidYMid meet">

<g transform="translate(0.000000,383.000000) scale(0.100000,-0.100000)"
fill="#000000" stroke="none">
<path d="M3147 3175 c-231 -39 -406 -131 -561 -296 -88 -93 -152 -196 -198
-317 -30 -79 -33 -83 -58 -77 -14 3 -95 9 -181 12 -166 6 -252 -5 -389 -49
-357 -114 -654 -410 -763 -760 -41 -130 -51 -202 -50 -358 1 -216 49 -401 149
-575 196 -337 528 -548 924 -586 593 -57 1156 391 1246 993 11 77 14 212 12
680 l-3 583 -25 -4 c-46 -6 -100 -41 -127 -83 l-28 -41 -6 -556 -5 -556 -26
-96 c-95 -349 -369 -617 -724 -706 -97 -24 -351 -24 -450 0 -344 82 -631 364
-721 706 -37 140 -37 323 0 474 57 229 178 415 361 554 76 58 237 135 336 162
193 53 444 43 603 -24 20 -8 40 -15 45 -15 5 0 13 37 19 83 24 177 98 324 227
452 65 64 100 90 176 128 91 45 224 87 279 87 69 0 71 3 71 106 l0 94 -27 -1
c-16 -1 -63 -7 -106 -14z"/>
<path d="M3200 2799 c-134 -20 -234 -73 -329 -175 -69 -73 -102 -126 -132
-210 -21 -56 -22 -85 -30 -519 -12 -693 -12 -691 -37 -759 -31 -84 -95 -178
-166 -242 -99 -90 -250 -154 -362 -154 l-34 0 0 -100 0 -100 63 6 c284 26 544
206 656 456 64 143 64 139 70 758 l6 565 33 67 c65 132 147 190 315 223 l28 6
-3 91 c-2 51 -7 92 -13 93 -5 2 -35 -1 -65 -6z"/>
<path d="M1950 2106 c-176 -39 -329 -130 -440 -261 -247 -292 -249 -722 -4
-1019 67 -81 176 -164 276 -211 130 -60 118 -99 118 367 0 390 1 403 21 446
25 50 84 97 142 113 170 46 326 -147 244 -301 -30 -58 -81 -97 -145 -112 l-52
-13 0 -94 0 -94 53 6 c135 14 258 100 319 225 31 62 33 73 33 172 0 102 -1
109 -38 182 -44 91 -102 146 -197 192 -59 28 -74 31 -165 31 -91 0 -106 -3
-167 -32 -131 -62 -219 -177 -238 -314 -5 -35 -10 -158 -10 -274 l-1 -210 -45
50 c-63 70 -112 173 -130 275 -46 260 86 519 324 638 182 91 416 80 577 -27
33 -22 63 -41 68 -41 4 0 7 50 7 111 l0 110 -67 30 c-144 66 -336 87 -483 55z"/>
</g>
</svg>
