<svg width="393" height="509" viewBox="0 0 393 509" fill="none" xmlns="http://www.w3.org/2000/svg">
<path opacity="0.936" fill-rule="evenodd" clip-rule="evenodd" d="M380.044 0C384.044 0 388.044 0 392.044 0C392.21 9.672 392.044 19.339 391.544 29C391.235 30.266 390.735 31.433 390.044 32.5C334.859 37.309 296.026 64.809 273.544 115C268.654 129.346 265.154 144.012 263.044 159C262.377 159.333 261.711 159.667 261.044 160C207.075 140.163 155.409 144.996 106.044 174.5C57.8163 207.939 33.1503 254.273 32.0443 313.5C35.5513 380.88 67.2183 429.88 127.044 460.5C200.965 489.431 265.132 475.264 319.544 418C338.583 395.252 351.25 369.252 357.544 340C358.814 276.341 359.814 212.675 360.544 149C367.023 136.693 377.19 129.693 391.044 128C392.056 188.33 392.223 248.663 391.544 309C390.56 376.469 363.393 430.636 310.044 471.5C241.693 517.088 171.026 520.755 98.0443 482.5C40.5733 448.309 8.07331 397.809 0.544314 331C-4.76269 246.435 28.7373 182.602 101.044 139.5C143.491 117.066 188.491 109.733 236.044 117.5C260.715 49.674 308.715 10.507 380.044 0Z" fill="#FEFFFE"/>
<path opacity="0.933" fill-rule="evenodd" clip-rule="evenodd" d="M384.044 64C386.044 64 388.044 64 390.044 64C391.858 74.592 392.358 85.259 391.544 96C372.179 98.516 355.845 106.849 342.544 121C337.702 128.681 333.369 136.681 329.544 145C328.849 205.34 327.849 265.673 326.544 326C323.7 362.815 307.866 392.648 279.044 415.5C254.308 434.358 226.308 444.191 195.044 445C195.044 433.667 195.044 422.333 195.044 411C232.834 409.687 261.667 393.021 281.544 361C287.614 350.789 291.281 339.789 292.544 328C294.309 272.012 295.642 216.012 296.544 160C295.741 139.077 301.741 120.41 314.544 104C332.027 80.678 355.194 67.345 384.044 64Z" fill="#FEFFFE"/>
<path opacity="0.937" fill-rule="evenodd" clip-rule="evenodd" d="M187.044 179C212.715 178.668 237.048 184.168 260.044 195.5C261.37 207.97 261.37 220.47 260.044 233C258.754 233.908 257.421 233.741 256.044 232.5C215.798 205.298 175.465 205.298 135.044 232.5C97.9432 264.397 87.4432 303.563 103.544 350C108.535 362.316 115.868 372.983 125.544 382C125.877 361.667 126.211 341.333 126.544 321C125.85 280.829 144.683 255.329 183.044 244.5C220.448 240.447 246.614 255.614 261.544 290C271.051 331.153 256.551 359.986 218.044 376.5C210.536 378.751 202.869 379.918 195.044 380C194.712 369.313 195.045 358.646 196.044 348C216.873 345.004 228.873 333.171 232.044 312.5C229.318 291.441 217.485 279.275 196.544 276C180.477 277.361 169.144 285.361 162.544 300C160.748 315.594 159.914 331.261 160.044 347C161.467 375.013 161.3 403.013 159.544 431C159.004 438.231 155.504 440.398 149.044 437.5C89.0912 410.45 60.5912 363.95 63.5442 298C72.0892 239.398 104.589 201.231 161.044 183.5C169.761 181.437 178.428 179.937 187.044 179Z" fill="#FEFFFE"/>
</svg>
